#N canvas 735 342 338 419 10;
#X obj 146 28 loadbang;
#X msg 203 96 1;
#X msg 137 97 0;
#X obj 141 142 hsl 128 15 0 1 0 0 empty empty empty -2 -8 0 10 #00ffff
#000000 #000000 12700 1;
#X obj 145 291 swap 1;
#X obj 145 328 -;
#X obj 130 380 *~;
#X floatatom 274 355 5 0 0 0 - - -, f 5;
#X floatatom 145 353 5 0 0 0 - - -, f 5;
#X obj 259 380 *~;
#X obj 192 429 *~;
#X obj 192 456 dac~;
#X obj 246 424 hsl 128 15 0 1 0 0 empty empty empty -2 -8 0 10 #fcfcfc
#000000 #000000 0 1;
#X obj 257 285 readsf~;
#X obj 58 268 readsf~;
#X msg 6 166 open aggressiv.wav \, 1;
#X msg 247 217 open hopeful.wav \, 2;
#X connect 0 0 2 0;
#X connect 0 0 1 0;
#X connect 1 0 3 0;
#X connect 2 0 3 0;
#X connect 3 0 4 0;
#X connect 3 0 7 0;
#X connect 4 0 5 0;
#X connect 4 1 5 1;
#X connect 5 0 8 0;
#X connect 6 0 10 0;
#X connect 7 0 9 1;
#X connect 8 0 6 1;
#X connect 9 0 10 0;
#X connect 10 0 11 0;
#X connect 10 0 11 1;
#X connect 12 0 10 1;
#X connect 13 0 9 0;
#X connect 13 1 16 0;
#X connect 14 0 6 0;
#X connect 14 1 15 0;
#X connect 15 0 14 0;
#X connect 16 0 13 0;
